# xmcd CD database file
#
# Track frame offsets:
#	150
#	17861
#	31659
#	55709
#	72353
#	87975
#	110152
#	126615
#	149710
#	171219
#
# Disc length: 2466 seconds
#
# Revision: 0
# Processed by: cddbd v1.5.2PL0 Copyright (c) Steve Scherf et al.
# Submitted via: CDex 1.70beta2
#
DISCID=9409a00a
DTITLE=Mark Gandy - Honky Tonk Hero
DYEAR=2005
DGENRE=Country
TTITLE0=Honky Tonk Hero
TTITLE1=Honky Tonkin' and Lovin' You
TTITLE2=Alway's A Cowboy
TTITLE3=It Ain't A Crime To Love Me
TTITLE4=Delilah
TTITLE5=Until The End Of Time
TTITLE6=Stray Dog
TTITLE7=Bar Lights
TTITLE8=Florida
TTITLE9=Honky Tonkin' and Lovin' You (Feat. Tony Caruso)
EXTD=YEAR: 2005
EXTT0=
EXTT1=
EXTT2=
EXTT3=
EXTT4=
EXTT5=
EXTT6=
EXTT7=
EXTT8=
EXTT9=
PLAYORDER=
